<svg width="343" height="165" viewBox="0 0 343 165" fill="none" xmlns="http://www.w3.org/2000/svg">
<g filter="url(#filter0_d_66_2)">
<path d="M102.296 42.456H55.64V69.336H90.2L94.808 97.176H55.64V147.48H23V15H102.296V42.456Z" fill="url(#paint0_linear_66_2)"/>
<path d="M222.283 82.584C222.283 125.976 200.779 149.976 168.523 149.976C136.075 149.976 114.379 125.976 114.379 82.584C114.379 39.192 136.075 15.192 168.523 15.192C200.779 15.192 222.283 39.192 222.283 82.584ZM190.603 82.584C190.603 54.936 183.499 39.576 168.523 39.576C153.547 39.576 146.251 54.936 146.251 82.584C146.251 110.232 153.547 125.592 168.523 125.592C183.499 125.592 190.603 110.232 190.603 82.584Z" fill="url(#paint1_linear_66_2)"/>
<path d="M321.506 145.176L291.362 148.824L275.234 119.832L259.682 147.48H232.034L260.642 101.016L233.378 55.704L263.522 52.056L278.114 78.744L292.514 53.4H319.97L292.706 97.56L321.506 145.176Z" fill="url(#paint2_linear_66_2)"/>
<path d="M102.296 45.456H105.296V42.456V15V12H102.296H23H20V15V147.48V150.48H23H55.64H58.64V147.48V100.176H94.808H98.3454L97.7677 96.6861L93.1597 68.8461L92.7443 66.336H90.2H58.64V45.456H102.296ZM321.866 148.154L326.476 147.596L324.073 143.623L296.222 97.5761L322.523 54.976L325.348 50.4H319.97H292.514H290.768L289.906 51.918L278.164 72.5826L266.154 50.6168L265.179 48.8336L263.162 49.0777L233.018 52.7257L228.42 53.2822L230.807 57.2507L257.13 100.998L229.479 145.907L226.664 150.48H232.034H259.682H261.437L262.297 148.951L275.219 125.977L288.74 150.282L289.721 152.045L291.722 151.802L321.866 148.154ZM168.523 152.976C185.454 152.976 199.78 146.644 209.814 134.459C219.794 122.341 225.283 104.742 225.283 82.584C225.283 60.4263 219.794 42.8265 209.814 30.7089C199.78 18.5239 185.454 12.192 168.523 12.192C151.502 12.192 137.083 18.5185 126.974 30.7002C116.918 42.8177 111.379 60.4204 111.379 82.584C111.379 104.748 116.918 122.35 126.974 134.468C137.083 146.65 151.502 152.976 168.523 152.976ZM168.523 42.576C171.726 42.576 174.381 43.3882 176.612 44.8942C178.863 46.4146 180.846 48.7552 182.495 52.0536C185.833 58.7286 187.603 68.9247 187.603 82.584C187.603 96.2433 185.833 106.439 182.495 113.114C180.846 116.413 178.863 118.753 176.612 120.274C174.381 121.78 171.726 122.592 168.523 122.592C165.319 122.592 162.648 121.78 160.396 120.269C158.124 118.744 156.118 116.399 154.447 113.1C151.066 106.427 149.251 96.2343 149.251 82.584C149.251 68.9337 151.066 58.7408 154.447 52.0677C156.118 48.7691 158.124 46.4239 160.396 44.8992C162.648 43.3884 165.319 42.576 168.523 42.576Z" stroke="#EEF3FF" stroke-width="6"/>
</g>
<defs>
<filter id="filter0_d_66_2" x="13" y="9" width="322.446" height="154.976" filterUnits="userSpaceOnUse" color-interpolation-filters="sRGB">
<feFlood flood-opacity="0" result="BackgroundImageFix"/>
<feColorMatrix in="SourceAlpha" type="matrix" values="0 0 0 0 0 0 0 0 0 0 0 0 0 0 0 0 0 0 127 0" result="hardAlpha"/>
<feOffset dy="4"/>
<feGaussianBlur stdDeviation="2"/>
<feComposite in2="hardAlpha" operator="out"/>
<feColorMatrix type="matrix" values="0 0 0 0 0 0 0 0 0 0 0 0 0 0 0 0 0 0 0.25 0"/>
<feBlend mode="normal" in2="BackgroundImageFix" result="effect1_dropShadow_66_2"/>
<feBlend mode="normal" in="SourceGraphic" in2="effect1_dropShadow_66_2" result="shape"/>
</filter>
<linearGradient id="paint0_linear_66_2" x1="172.253" y1="15" x2="172.253" y2="149.976" gradientUnits="userSpaceOnUse">
<stop stop-color="#B3B3B3"/>
<stop offset="1" stop-color="#222222"/>
</linearGradient>
<linearGradient id="paint1_linear_66_2" x1="172.253" y1="15" x2="172.253" y2="149.976" gradientUnits="userSpaceOnUse">
<stop stop-color="#2D103D"/>
<stop offset="1" stop-color="#5D6FA7"/>
</linearGradient>
<linearGradient id="paint2_linear_66_2" x1="172.253" y1="15" x2="172.253" y2="149.976" gradientUnits="userSpaceOnUse">
<stop stop-color="#2D103D"/>
<stop offset="1" stop-color="#5D6FA7"/>
</linearGradient>
</defs>
</svg>
