<svg viewBox="0 0 864 298" fill="none" xmlns="http://www.w3.org/2000/svg">
<path d="M500.073 255.182H467.361C462.715 255.182 458.949 251.416 458.949 246.77V183.214C458.949 178.569 462.715 174.803 467.361 174.803H500.073C504.719 174.803 508.485 178.569 508.485 183.214V246.77C508.485 251.416 504.719 255.182 500.073 255.182Z" fill="white"/>
<path d="M500.073 163.587H467.361C462.715 163.587 458.949 159.821 458.949 155.175V122.463C458.949 117.817 462.715 114.051 467.361 114.051H500.073C504.719 114.051 508.485 117.817 508.485 122.463V155.175C508.485 159.821 504.719 163.587 500.073 163.587Z" fill="white"/>
<path d="M310.902 114.051C383.374 114.051 442.125 172.801 442.125 245.274C442.125 250.746 437.689 255.181 432.218 255.181L316.883 255.181C308.108 255.181 300.995 248.068 300.995 239.292L300.995 123.958C300.995 118.486 305.43 114.051 310.902 114.051Z" fill="white"/>
<path d="M696.69 135.675L719.843 112.522C723.128 109.237 728.454 109.237 731.739 112.522L759.098 139.881C762.383 143.166 767.709 143.166 770.994 139.881L798.353 112.522C801.638 109.237 806.964 109.237 810.249 112.522L833.437 135.711C836.708 138.982 836.724 144.28 833.473 147.571L806.404 174.966C803.167 178.242 803.167 183.514 806.404 186.79L833.473 214.185C836.724 217.476 836.708 222.774 833.437 226.045L810.249 249.234C806.964 252.519 801.638 252.519 798.353 249.234L770.994 221.875C767.709 218.59 762.383 218.59 759.098 221.875L731.739 249.234C728.454 252.519 723.128 252.519 719.843 249.234L696.69 226.081C693.405 222.796 693.405 217.47 696.69 214.185L724.049 186.826C727.334 183.541 727.334 178.215 724.049 174.93L696.69 147.571C693.405 144.286 693.405 138.96 696.69 135.675Z" fill="white"/>
<path d="M525.309 155.175V122.463C525.309 117.817 529.075 114.051 533.72 114.051H665.504C670.15 114.051 673.916 117.817 673.916 122.463V155.175C673.916 159.821 670.15 163.587 665.504 163.587H632.792C628.146 163.587 624.38 167.353 624.38 171.998V246.77C624.38 251.415 620.614 255.181 615.969 255.181H583.256C578.611 255.181 574.844 251.415 574.844 246.77V171.998C574.844 167.353 571.078 163.587 566.433 163.587H533.72C529.075 163.587 525.309 159.821 525.309 155.175Z" fill="white"/>
<rect x="5.16797" y="199.029" width="11.8268" height="34.8889" rx="5.91338" transform="rotate(-90 5.16797 199.029)" fill="white"/>
<rect x="47.7383" y="199.029" width="11.8268" height="11.8268" rx="5.91338" transform="rotate(-90 47.7383 199.029)" fill="white"/>
<rect x="27.9414" y="237.26" width="11.8268" height="34.8889" rx="5.91338" transform="rotate(-120 27.9414 237.26)" fill="white"/>
<rect x="64.8086" y="215.971" width="11.8268" height="11.8268" rx="5.91338" transform="rotate(-120 64.8086 215.971)" fill="white"/>
<rect x="76.8281" y="175.191" width="169.17" height="121.503" rx="60.7515" transform="rotate(-30 76.8281 175.191)" fill="white"/>
<path d="M165.12 213.574C167.639 218.531 175.33 224.709 190.591 207.075L188.747 201.215L192.899 205.742C215.792 201.348 214.296 191.594 211.263 186.933" stroke="black" stroke-width="8.44025" stroke-linecap="round" stroke-linejoin="round"/>
<rect x="129.133" y="184.926" width="23.5438" height="23.5436" rx="11.7718" transform="rotate(-30 129.133 184.926)" fill="black"/>
<rect x="192.578" y="165.746" width="29.9581" height="8.60445" rx="4.30223" transform="rotate(-57.7584 192.578 165.746)" fill="black"/>
<rect x="194.449" y="161.568" width="26.4383" height="8.60445" rx="4.30223" transform="rotate(-18.8235 194.449 161.568)" fill="black"/>
<rect x="216.695" y="172.982" width="26.2092" height="8.44025" rx="4.22012" transform="rotate(-35 216.695 172.982)" fill="black"/>
<rect x="222.867" y="181.312" width="15.5478" height="8.44025" rx="4.22012" transform="rotate(-25 222.867 181.312)" fill="black"/>
<path d="M180.824 199.686C180.05 198.345 180.509 196.63 181.85 195.856L187.516 192.585C188.857 191.81 190.572 192.27 191.346 193.611C192.379 195.399 191.766 197.686 189.978 198.718L185.931 201.054C184.143 202.087 181.856 201.474 180.824 199.686Z" fill="black"/>
<rect width="26.2092" height="8.44025" rx="4.22012" transform="matrix(-0.906308 0.422618 0.422618 0.906308 150.703 211.584)" fill="black"/>
<rect width="15.5478" height="8.44025" rx="4.22012" transform="matrix(-0.819152 0.573576 0.573576 0.819152 155.512 220.199)" fill="black"/>
<path d="M84.5314 171.612L60.0798 125.054L105.548 135.21L84.5314 171.612Z" fill="black" stroke="white" stroke-width="14.9542" stroke-linejoin="round"/>
<path d="M223.207 91.542L195.112 47.0872L181.173 91.542H223.207Z" fill="black" stroke="white" stroke-width="14.9542" stroke-linejoin="round"/>
</svg>
