<svg viewBox="0 0 756 170" fill="none" xmlns="http://www.w3.org/2000/svg">
<path d="M14 52L7 69.5L6 76.5L10.5 92L21 104.5L36.5 111.5L58 116L82.5 117.5H173L184.5 121L175 129L169.5 140V154.5L179 162H192.5L205.5 157L217 147L225.5 137L231 119H244L265.5 159L275.5 162L294.5 157L299 144L292 117.5H529.5L540 119L529.5 130.5L522 142.5V152.5L529.5 162L541.5 164L559.5 157L572 145.5L578.5 135L585.5 119L590.5 116L597 117.5L613.5 150L620 160L629 164L646 160L652 149L650.5 137.5L641.5 117.5V111.5L650.5 101.5L656 88.5L659.5 64L742.5 61.5L746.5 58.5L750.5 52V43.5L748.5 35.5L742.5 30.5L192.5 25.5L182.5 13L174.5 6.5H169L146.5 25.5H94.5L84.5 13L75.5 6.5L67.5 9L50.5 25.5L27.5 38L14 52Z" fill="white" stroke="black"/>
<path fill-rule="evenodd" clip-rule="evenodd" d="M69.8359 1.26032C67.7059 2.24232 61.9219 7.14532 56.9839 12.1543C52.0449 17.1643 47.6489 21.2633 47.2129 21.2633C46.7779 21.2633 42.6819 23.0323 38.1109 25.1933C33.5389 27.3553 27.5859 30.8133 24.8809 32.8773C22.1769 34.9423 18.0489 38.6863 15.7099 41.1973C13.3699 43.7083 9.78791 48.9133 7.74991 52.7633C4.04391 59.7633 1.00391 65.3103 1.00391 74.7633C1.00391 82 4.07391 89.9713 6.64991 94.8553C8.12691 97.6553 11.8239 102.22 14.8629 104.998C17.9029 107.776 22.3189 110.972 24.6769 112.099C27.0339 113.225 30.9879 114.898 33.4629 115.816C35.9379 116.733 41.5629 118.095 45.9629 118.842C50.3629 119.589 61.8379 120.654 71.4629 121.208C81.0879 121.762 107.413 122.233 129.963 122.254C152.776 122.276 171.601 122.697 172.4 123.203C173.56 123.937 173.132 124.838 170.179 127.879C168.167 129.95 165.833 133.664 164.992 136.132C164.151 138.6 163.497 143.127 163.539 146.191C163.581 149.256 164.143 153.144 164.789 154.832C165.435 156.52 166.892 159.061 168.027 160.48C169.162 161.899 171.855 164.005 174.012 165.161C177.188 166.863 179.695 168.263 187.196 168.263C195.482 168.263 197.151 166.935 203.041 164.152C206.662 162.441 212.176 158.917 215.294 156.32C218.412 153.724 222.765 148.936 224.967 145.681C227.17 142.426 229.94 137.288 231.124 134.263C232.307 131.238 233.552 127.525 233.888 126.013C234.345 123.962 235.102 123.263 236.862 123.263C238.668 123.263 240.279 124.851 243.707 130.013C246.173 133.726 249.849 140.363 251.877 144.763C253.905 149.163 256.581 154.788 257.823 157.263C259.587 160.776 261.26 162.366 265.452 164.513C269.773 166.726 272.165 167.263 277.697 167.263C282.534 167.263 285.965 166.639 289.268 165.158C291.85 164 295.242 161.862 296.806 160.408C298.37 158.953 300.733 155.64 302.056 153.046C303.873 149.485 304.463 146.725 304.463 141.782C304.463 136.633 303.847 133.943 301.579 129.18C298.695 123.125 298.695 123.125 301.329 122.122C302.914 121.518 512.655 121.394 518.228 121.81C523.324 122.191 527.722 122.873 528.002 123.326C528.282 123.779 526.959 125.7 525.063 127.596C523.167 129.493 520.624 132.988 519.412 135.363C517.752 138.616 517.188 141.544 517.125 147.223C517.056 153.438 517.455 155.466 519.396 158.763C520.691 160.963 523.373 163.866 525.357 165.214C528.63 167.439 531.5 168.714 539.963 168.714C547.082 168.714 551.378 167.557 556.963 164.79C560.475 163.05 565.683 159.111 569.523 155.29C573.13 151.7 577.252 146.963 578.683 144.763C580.113 142.563 582.223 138.97 583.373 136.778C584.522 134.586 585.463 132.206 585.463 131.488C585.463 130.77 586.372 128.401 587.483 126.223C588.595 124.045 589.832 122.288 590.233 122.318C590.635 122.349 591.906 123.586 593.057 125.068C594.209 126.55 597.697 132.186 600.807 137.592C603.918 142.998 606.463 147.68 606.463 147.995C606.463 148.311 607.784 151.364 609.398 154.78C611.304 158.816 613.792 162.148 616.502 164.294C620.607 167.545 623.698 169 631.5 169C639.302 169 641.477 167.598 644.905 165.5C647.044 164.192 649.432 162.571 650 162C650.568 161.43 653.5 159 655 156.88C656.5 153.5 656.5 151.481 657 145.5C657.333 141.514 655.391 133.961 654.158 131.763C653.233 130.113 652.473 128.421 652.469 128.003C652.466 127.585 650.888 125.002 648.963 122.263C647.038 119.524 645.463 116.176 645.463 114.823C645.463 113.47 646.103 112.003 646.885 111.563C647.667 111.123 649.848 108.738 651.733 106.263C653.617 103.788 656.172 99.5133 657.409 96.7633C659.068 93.0793 659.832 88.9553 660.312 81.0963C660.67 75.2293 661.337 70.0543 661.795 69.5963C662.252 69.1383 680.252 68.4923 701.795 68.1613C723.337 67.8303 742.151 67.2253 743.603 66.8163C745.056 66.4063 748.111 64.1335 749.764 62.4173C751.7 60.4073 753.772 56.9633 754.368 54.7633C754.964 52.5633 755.42 48.5133 755.381 45.7633C755.341 43.0133 754.781 39.0133 754.135 36.8753C753.352 34.2813 751.347 31.6183 748.111 28.8753C743.26 24.7633 743.26 24.7633 573.59 24.2633C405.868 23.7693 198.889 23.7403 196.262 21.7633C194.801 20.6633 190.593 16.0053 186.912 11.4113C182.478 5.87832 178.994 2.54332 176.591 1.53132C173.594 0.269322 172.181 0.20832 168.463 1.18032C164.809 2.13632 162.127 4.18132 154.194 12.0603C144.426 21.7633 144.426 21.7633 122.694 22.3593C104.839 22.8493 100.51 22.6993 98.4259 21.5193C97.0309 20.7303 93.8999 17.3673 91.4689 14.0463C89.0369 10.7253 85.5739 6.49032 83.7729 4.63532C81.9719 2.78132 80.3749 1.26332 80.2239 1.26332C80.0729 1.26332 78.5459 0.860319 76.8299 0.368319C74.4839 -0.30468 72.7479 -0.0826784 69.8359 1.26032ZM64.5699 19.6493C58.7529 25.4943 53.6119 29.7283 51.0699 30.7693C48.8109 31.6933 44.9599 33.4193 42.5119 34.6063C40.0639 35.7923 36.2339 37.9603 33.9999 39.4243C31.7659 40.8873 27.4379 44.7123 24.3819 47.9243C21.3269 51.1353 17.5249 56.4633 15.9329 59.7633C13.6639 64.4703 11.9619 67.4873 11.6759 73.7633C11.3639 80.6183 12.6689 82.5653 14.8079 87.3623C16.4999 91.1573 19.0949 94.5423 22.8569 97.8623C25.9119 100.558 30.7849 103.703 33.6869 104.853C36.5889 106.002 41.4139 107.74 44.4099 108.714C48.4839 110.039 55.5429 110.716 72.4099 111.403C84.8139 111.908 116.366 112.679 142.526 113.117C168.685 113.555 190.623 114.244 191.276 114.647C191.929 115.051 192.447 116.817 192.427 118.572C192.407 120.357 191.416 122.931 190.177 124.413C188.959 125.871 185.713 128.755 182.963 130.822C180.213 132.89 177.81 134.968 177.624 135.44C177.437 135.912 176.57 137.013 175.697 137.886C174.791 138.792 173.916 141.814 173.658 144.929C173.253 149.803 173.491 150.683 175.883 153.18C177.356 154.717 180.375 156.574 182.592 157.305C185.853 158.382 187.513 158.4 191.292 157.401C193.861 156.722 197.965 155.204 200.413 154.029C202.86 152.853 207.379 149.387 210.454 146.327C213.529 143.267 217.208 138.67 218.629 136.111C220.05 133.553 222.233 128.378 223.482 124.611C224.73 120.845 226.069 117.094 226.457 116.277C226.846 115.459 228.693 114.464 230.563 114.064C232.433 113.665 257.345 112.938 285.923 112.449C314.502 111.96 543.694 111.772 544.684 112.031C545.675 112.29 546.754 113.573 547.082 114.882C547.411 116.192 547.414 118.323 547.089 119.618C546.764 120.914 543.957 124.401 540.853 127.368C537.748 130.335 533.964 133.938 532.444 135.373C530.924 136.809 528.78 140.018 527.68 142.506C525.74 146.89 525.733 147.151 527.453 150.992C528.471 153.267 530.711 155.871 532.713 157.108C534.766 158.377 537.849 159.263 540.21 159.263C542.418 159.263 546.861 158.066 550.092 156.6C553.978 154.837 558.202 151.671 562.585 147.237C566.227 143.552 570.758 137.888 572.655 134.65C574.551 131.412 576.656 126.565 577.331 123.879C578.007 121.192 579.447 117.255 580.532 115.129C582.504 111.263 582.504 111.263 596.233 111.176C603.785 111.128 613.788 110.728 618.463 110.287C623.138 109.846 629.165 108.685 631.857 107.708C634.937 106.59 638.666 104.017 641.915 100.768C645.878 96.8043 647.569 94.1143 649.192 89.1843C650.617 84.8603 651.426 79.4163 651.671 72.5133C651.957 64.4243 652.402 61.8953 653.783 60.5133C655.377 58.9183 659.265 58.7193 697.581 58.2633C739.629 57.7633 739.629 57.7633 742.546 54.4973C744.992 51.7583 745.463 50.3753 745.463 45.9223C745.463 41.6713 744.5 39.5 744 38.5C743 36.5 741.493 35.926 740 35C737.504 33.451 727.197 33.2523 632.248 33.1223C575.441 33.0453 293.843 32.7083 257.03 32.3723C190.096 31.7633 190.096 31.7633 184.654 25.2633C181.661 21.6883 177.508 16.7703 175.426 14.3353C171.641 9.90732 171.641 9.90732 161.085 20.3353C155.279 26.0703 149.501 31.0563 148.246 31.4133C146.99 31.7713 134.178 32.1083 119.775 32.1633C93.5859 32.2633 93.5859 32.2633 90.6859 29.5133C89.0919 28.0003 86.4759 24.9813 84.8749 22.8033C83.2729 20.6263 80.1629 16.9013 77.9629 14.5273C73.9629 10.2103 73.9629 10.2103 64.5699 19.6493ZM48.7469 55.0323C47.5279 55.2313 45.4579 56.6683 44.1469 58.2263C42.7359 59.9033 41.2609 63.6103 40.5339 67.3093C39.5569 72.2733 39.5609 74.9153 40.5529 80.1603C41.3899 84.5853 42.6329 87.6703 44.3199 89.5133C46.1719 91.5373 47.7779 92.2593 50.3999 92.2483C52.3599 92.2393 54.4349 91.9023 55.0109 91.4983C55.5879 91.0943 57.1049 89.2673 58.3819 87.4383C60.4559 84.4703 60.6979 83.0283 60.6339 73.9903C60.5669 64.5663 60.3689 63.5923 57.7629 59.9163C56.2229 57.7443 54.0629 55.6753 52.9629 55.3193C51.8629 54.9623 49.9659 54.8333 48.7469 55.0323ZM146.328 57.5493C144.695 58.9213 143.079 61.9133 142.078 65.4173C141.19 68.5273 140.468 72.5773 140.475 74.4173C140.481 76.2573 141.137 80.2063 141.932 83.1923C142.726 86.1783 144.309 89.5533 145.448 90.6923C146.984 92.2273 148.71 92.7373 152.123 92.6643C155.714 92.5873 157.148 92.0373 158.64 90.1643C159.692 88.8433 160.983 86.7213 161.508 85.4483C162.033 84.1753 162.463 79.8433 162.463 75.8233C162.463 71.8023 162.175 67.0723 161.822 65.3103C161.47 63.5493 159.729 60.5673 157.954 58.6853C155.699 56.2933 153.859 55.2743 151.845 55.2993C150.26 55.3193 147.777 56.3313 146.328 57.5493ZM619.963 120.309C617.213 120.737 612.852 121.127 610.272 121.175C607.692 121.224 605.291 121.733 604.936 122.307C604.581 122.881 604.839 124.011 605.509 124.818C606.178 125.625 607.563 127.743 608.586 129.524C609.609 131.306 612.192 136.363 614.326 140.763C616.46 145.163 618.527 149.8 618.919 151.068C619.963 153 621.462 154.699 623.698 156.318C625.934 157.938 628.57 158.769 630 158.763C631.43 158.758 635.247 158.18 638.039 156.88C641.857 155.102 643.558 153.582 644.905 150.744C646.219 147.976 646.528 145.747 646.067 142.367C645.722 139.835 644.262 135.43 642.821 132.579C641.381 129.728 638.547 125.566 636.523 123.329C633.333 119.804 632.319 119.281 628.903 119.397C626.736 119.47 622.713 119.881 619.963 120.309ZM253.503 123.217C252.238 124.017 252.262 124.384 253.683 125.954C254.586 126.951 255.804 128.891 256.391 130.265C256.978 131.639 257.892 133.438 258.423 134.263C258.953 135.088 260.568 138.463 262.012 141.763C263.456 145.063 265.385 149.264 266.3 151.099C267.215 152.934 268.646 154.806 269.481 155.26C270.317 155.714 272.697 156.404 274.771 156.793C276.999 157.211 280.375 156.988 283.017 156.248C285.809 155.466 288.595 153.738 290.428 151.651C292.043 149.811 293.648 146.793 293.995 144.944C294.342 143.094 294.127 139.729 293.517 137.464C292.907 135.2 290.938 131.419 289.14 129.062C287.342 126.705 284.767 124.218 283.417 123.534C281.837 122.735 276.335 122.293 267.963 122.293C260.813 122.293 254.306 122.709 253.503 123.217Z" fill="black"/>
<circle cx="91" cy="92" r="5" fill="black"/>
</svg>
