<svg width="56" height="56" viewBox="0 0 56 56" fill="none" xmlns="http://www.w3.org/2000/svg">
<path d="M11.5714 5C7.94688 5 5 7.94688 5 11.5714V44.4286C5 48.0531 7.94688 51 11.5714 51H44.4286C48.0531 51 51 48.0531 51 44.4286V11.5714C51 7.94688 48.0531 5 44.4286 5H11.5714ZM42.0772 13.625L31.4192 25.8027L43.9563 42.375H34.1402L26.4598 32.3228L17.6603 42.375H12.783L24.1804 29.3451L12.1567 13.625H22.2192L29.1705 22.8147L37.2 13.625H42.0772ZM38.196 39.4589L20.7509 16.3871H17.8451L35.4853 39.4589H38.1857H38.196Z" fill="white"/>
</svg>
