<svg viewBox="0 0 666 437" fill="none" xmlns="http://www.w3.org/2000/svg">
<path d="M661.518 134.22V134.2L661.497 134.1L661.478 133.98C650.158 77.24 619.017 46.51 594.867 30.73C566.577 10.93 531.258 0.019989 495.408 0.019989L39.6075 0C13.9775 0 0.31752 23.62 0.31752 40.67V45.87C0.30752 47.89 -0.942491 248.64 1.58751 356.36C1.58751 356.57 1.59751 356.79 1.61751 357C4.14751 397.94 27.2975 417.51 46.2875 426.72C65.8975 436.23 85.0975 436.35 85.9075 436.36H85.9875C94.5075 436.36 295.898 436.35 394.608 435.1C400.338 435.1 405.758 435.1 412.978 433.36L413.228 433.3C443.258 425.62 464.658 408.05 476.828 381.07C482.578 368.32 486.058 353.95 487.418 337.23C514.968 336.53 540.877 331.09 564.487 321.03C589.357 310.43 610.418 295.25 627.068 275.9C659.768 237.9 672.008 187.59 661.528 134.22H661.518ZM35.1075 355.24C32.6375 249.41 33.8075 54.27 33.8575 45.97V40.76C33.9275 40.29 35.1175 33.54 39.5975 33.54L495.398 33.56C524.518 33.56 553.077 42.36 575.807 58.34C575.977 58.46 576.137 58.57 576.307 58.68C603.717 76.51 621.308 104.07 628.578 140.59C637.068 183.67 627.488 223.95 601.628 254C572.488 287.87 525.267 305.93 472.057 303.53C467.507 303.32 463.008 305.01 459.708 308.16C456.418 311.31 454.528 315.73 454.528 320.28C454.528 365.87 438.318 392.19 405.068 400.73C401.768 401.52 399.378 401.52 394.628 401.52H394.297C306.717 402.63 137.518 402.76 87.7375 402.78H85.9275C85.8075 402.78 73.3475 402.54 60.9075 396.51C45.0875 388.83 36.3975 374.94 35.1075 355.21V355.24Z" fill="var(--white-1)"/>
<path d="M471.608 259.96C472.198 260 477.638 260.36 486.138 260.36C497.138 260.36 507.978 259.77 518.368 258.62C519.458 258.5 520.548 258.27 521.598 257.94C565.368 244.04 587.568 212.4 587.568 163.89C587.568 141.14 580.858 121.86 567.688 106.67C551.708 87.42 528.818 76.8201 503.248 76.8201H472.768C463.518 76.8201 455.998 84.3401 455.988 93.5901V243.23C455.988 252.01 462.838 259.36 471.598 259.96H471.608ZM489.548 226.78V110.36H503.258C518.708 110.36 532.448 116.69 541.958 128.18L542.218 128.49C550.158 137.62 554.018 149.19 554.018 163.88C554.018 197.37 541.738 215.81 512.988 225.45C505.498 226.23 497.628 226.67 489.548 226.77V226.78Z" fill="var(--white-1)"/>
<path d="M243.396 336.61C246.346 337.2 248.906 334.64 248.906 334.64C248.906 334.64 321.766 268.38 354.896 230.04C383.996 195.63 385.376 138.61 336.316 117.47C285.976 96.23 244.876 142.63 244.876 142.63C209.086 102.91 154.816 105.56 129.646 132.01C104.476 158.46 113.716 203.58 132.296 230.03C148.516 252.55 229.826 325.7 239.946 334.84C240.926 335.72 242.106 336.41 243.386 336.61H243.396Z" fill="var(--white-1)"/>
</svg>
