<svg  viewBox="0 0 98 98" fill="none" xmlns="http://www.w3.org/2000/svg">
<path d="M12.1035 70.6029C28.2641 86.7627 54.4389 86.7627 70.5995 70.6029C86.7218 54.4813 86.7601 28.3461 70.657 12.1863L69.8336 11.363C68.6465 10.1759 66.6934 10.1759 65.5063 11.363L11.3376 65.529C10.1505 66.7161 10.1505 68.669 11.3376 69.8561L12.1035 70.622V70.6029ZM59.0918 28.4801C60.279 27.293 62.232 27.293 63.4192 28.4801L66.4828 31.5436C67.6699 32.7307 67.6699 34.6837 66.4828 35.8708C65.2956 37.0578 63.3426 37.0578 62.1554 35.8708L59.0918 32.8073C57.9046 31.6202 57.9046 29.6672 59.0918 28.4801ZM43.7737 43.7975C44.9609 42.6104 46.9139 42.6104 48.1011 43.7975L51.1647 46.861C52.3518 48.048 52.3518 50.001 51.1647 51.1881C49.9775 52.3752 48.0245 52.3752 46.8373 51.1881L43.7737 48.1246C42.5865 46.9375 42.5865 44.9846 43.7737 43.7975ZM60.6236 45.3292C61.8108 44.1421 63.7638 44.1421 64.951 45.3292L68.0146 48.3927C69.2017 49.5798 69.2017 51.5327 68.0146 52.7198C66.8274 53.9069 64.8744 53.9069 63.6872 52.7198L60.6236 49.6564C59.4365 48.4693 59.4365 46.5163 60.6236 45.3292ZM28.4556 59.1148C29.6428 57.9277 31.5958 57.9277 32.783 59.1148L35.8466 62.1783C37.0337 63.3654 37.0337 65.3184 35.8466 66.5055C34.6594 67.6926 32.7064 67.6926 31.5192 66.5055L28.4556 63.442C27.2685 62.2549 27.2685 60.3019 28.4556 59.1148ZM45.3055 60.6466C46.4927 59.4595 48.4457 59.4595 49.6329 60.6466L52.6965 63.71C53.8836 64.8971 53.8836 66.8501 52.6965 68.0372C51.5093 69.2243 49.5563 69.2243 48.3691 68.0372L45.3055 64.9737C44.1184 63.7866 44.1184 61.8337 45.3055 60.6466Z" fill="#E92D2D"/>
<path d="M7.83378 74.8731C6.0339 73.0734 3.12347 73.0734 1.34274 74.8731C-0.437992 76.6729 -0.45714 79.5832 1.34274 81.3639C23.4774 103.497 59.2834 103.574 81.4372 81.4213C103.591 59.2686 103.476 23.4834 81.3606 1.34984C79.5608 -0.449947 76.6503 -0.449947 74.8696 1.34984C73.0889 3.14963 73.0697 6.05993 74.8696 7.84057C93.4237 26.3937 93.4619 56.3966 74.927 74.9306C56.3921 93.4646 26.3878 93.4263 7.83378 74.8731Z" fill="#A7DF2F"/>
</svg>
