<svg width="700" height="700" viewBox="0 0 700 700" fill="none" xmlns="http://www.w3.org/2000/svg">
<g clip-path="url(#clip0_16_108)">
<rect width="700" height="700" fill="white"/>
<rect width="700" height="700" fill="url(#paint0_linear_16_108)"/>
<rect x="7.5" y="7.5" width="685" height="685" stroke="black" stroke-opacity="0.3" stroke-width="15"/>
<g opacity="0.35" filter="url(#filter0_d_16_108)">
<mask id="path-3-outside-1_16_108" maskUnits="userSpaceOnUse" x="61" y="7.99997" width="579" height="676" fill="black">
<rect fill="white" x="61" y="7.99997" width="579" height="676"/>
<path d="M259.916 523.818L239.17 659.118L157.088 640.176L175.128 523.818H81.3199V409.264H193.168L212.11 282.984H113.792L94.8499 168.43H230.15L250.896 39.4439H337.488L316.742 168.43H440.316L461.964 33.1299L544.948 52.0719L526.006 168.43H619.814V282.984H508.868L488.122 409.264H588.244L606.284 523.818H470.082L449.336 652.804H363.646L383.49 523.818H259.916ZM297.8 280.278L277.054 411.97H403.334L424.08 280.278H297.8Z"/>
</mask>
<path d="M259.916 523.818L239.17 659.118L157.088 640.176L175.128 523.818H81.3199V409.264H193.168L212.11 282.984H113.792L94.8499 168.43H230.15L250.896 39.4439H337.488L316.742 168.43H440.316L461.964 33.1299L544.948 52.0719L526.006 168.43H619.814V282.984H508.868L488.122 409.264H588.244L606.284 523.818H470.082L449.336 652.804H363.646L383.49 523.818H259.916ZM297.8 280.278L277.054 411.97H403.334L424.08 280.278H297.8Z" fill="url(#paint1_linear_16_108)" shape-rendering="crispEdges"/>
<path d="M259.916 523.818V503.818H242.749L240.147 520.787L259.916 523.818ZM239.17 659.118L234.673 678.606L255.672 683.452L258.939 662.149L239.17 659.118ZM157.088 640.176L137.324 637.112L134.476 655.483L152.591 659.664L157.088 640.176ZM175.128 523.818L194.892 526.882L198.468 503.818H175.128V523.818ZM81.3199 523.818H61.3199V543.818H81.3199V523.818ZM81.3199 409.264V389.264H61.3199V409.264H81.3199ZM193.168 409.264V429.264H210.392L212.947 412.231L193.168 409.264ZM212.11 282.984L231.889 285.951L235.334 262.984H212.11V282.984ZM113.792 282.984L94.0599 286.247L96.8275 302.984H113.792V282.984ZM94.8499 168.43V148.43H71.2713L75.1179 171.693L94.8499 168.43ZM230.15 168.43V188.43H247.19L249.896 171.606L230.15 168.43ZM250.896 39.4439V19.4439H233.856L231.15 36.268L250.896 39.4439ZM337.488 39.4439L357.234 42.6199L360.962 19.4439H337.488V39.4439ZM316.742 168.43L296.996 165.254L293.268 188.43H316.742V168.43ZM440.316 168.43V188.43H457.37L460.065 171.59L440.316 168.43ZM461.964 33.1299L466.415 13.6314L445.59 8.87793L442.215 29.9701L461.964 33.1299ZM544.948 52.0719L564.688 55.2855L567.705 36.7521L549.399 32.5735L544.948 52.0719ZM526.006 168.43L506.266 165.216L502.487 188.43H526.006V168.43ZM619.814 168.43H639.814V148.43H619.814V168.43ZM619.814 282.984V302.984H639.814V282.984H619.814ZM508.868 282.984V262.984H491.886L489.132 279.742L508.868 282.984ZM488.122 409.264L468.386 406.022L464.568 429.264H488.122V409.264ZM588.244 409.264L608 406.153L605.341 389.264H588.244V409.264ZM606.284 523.818V543.818H629.68L626.04 520.707L606.284 523.818ZM470.082 523.818V503.818H453.042L450.336 520.642L470.082 523.818ZM449.336 652.804V672.804H466.376L469.082 655.98L449.336 652.804ZM363.646 652.804L343.878 649.763L340.334 672.804H363.646V652.804ZM383.49 523.818L403.257 526.859L406.802 503.818H383.49V523.818ZM297.8 280.278V260.278H280.704L278.044 277.166L297.8 280.278ZM277.054 411.97L257.298 408.858L253.657 431.97H277.054V411.97ZM403.334 411.97V431.97H420.43L423.09 415.082L403.334 411.97ZM424.08 280.278L443.836 283.39L447.477 260.278H424.08V280.278ZM240.147 520.787L219.401 656.087L258.939 662.149L279.685 526.849L240.147 520.787ZM243.667 639.63L161.585 620.688L152.591 659.664L234.673 678.606L243.667 639.63ZM176.852 643.24L194.892 526.882L155.364 520.754L137.324 637.112L176.852 643.24ZM175.128 503.818H81.3199V543.818H175.128V503.818ZM101.32 523.818V409.264H61.3199V523.818H101.32ZM81.3199 429.264H193.168V389.264H81.3199V429.264ZM212.947 412.231L231.889 285.951L192.331 280.017L173.389 406.297L212.947 412.231ZM212.11 262.984H113.792V302.984H212.11V262.984ZM133.524 279.721L114.582 165.167L75.1179 171.693L94.0599 286.247L133.524 279.721ZM94.8499 188.43H230.15V148.43H94.8499V188.43ZM249.896 171.606L270.642 42.6199L231.15 36.268L210.404 165.254L249.896 171.606ZM250.896 59.4439H337.488V19.4439H250.896V59.4439ZM317.742 36.268L296.996 165.254L336.488 171.606L357.234 42.6199L317.742 36.268ZM316.742 188.43H440.316V148.43H316.742V188.43ZM460.065 171.59L481.713 36.2897L442.215 29.9701L420.567 165.27L460.065 171.59ZM457.513 52.6284L540.497 71.5704L549.399 32.5735L466.415 13.6314L457.513 52.6284ZM525.208 48.8584L506.266 165.216L545.746 171.643L564.688 55.2855L525.208 48.8584ZM526.006 188.43H619.814V148.43H526.006V188.43ZM599.814 168.43V282.984H639.814V168.43H599.814ZM619.814 262.984H508.868V302.984H619.814V262.984ZM489.132 279.742L468.386 406.022L507.857 412.506L528.603 286.226L489.132 279.742ZM488.122 429.264H588.244V389.264H488.122V429.264ZM568.487 412.375L586.527 526.929L626.04 520.707L608 406.153L568.487 412.375ZM606.284 503.818H470.082V543.818H606.284V503.818ZM450.336 520.642L429.59 649.628L469.082 655.98L489.828 526.994L450.336 520.642ZM449.336 632.804H363.646V672.804H449.336V632.804ZM383.413 655.845L403.257 526.859L363.722 520.777L343.878 649.763L383.413 655.845ZM383.49 503.818H259.916V543.818H383.49V503.818ZM278.044 277.166L257.298 408.858L296.81 415.082L317.556 283.39L278.044 277.166ZM277.054 431.97H403.334V391.97H277.054V431.97ZM423.09 415.082L443.836 283.39L404.324 277.166L383.578 408.858L423.09 415.082ZM424.08 260.278H297.8V300.278H424.08V260.278Z" fill="#C6C6C6" mask="url(#path-3-outside-1_16_108)"/>
</g>
<g filter="url(#filter1_d_16_108)">
<mask id="path-5-outside-2_16_108" maskUnits="userSpaceOnUse" x="209" y="125" width="303" height="477" fill="black">
<rect fill="white" x="209" y="125" width="303" height="477"/>
<path d="M491.308 235.749H337.489V324.369H451.429L466.621 416.154H337.489V582H229.879V145.23H491.308V235.749Z"/>
</mask>
<path d="M491.308 235.749H337.489V324.369H451.429L466.621 416.154H337.489V582H229.879V145.23H491.308V235.749Z" fill="url(#paint2_linear_16_108)"/>
<path d="M491.308 235.749V255.749H511.308V235.749H491.308ZM337.489 235.749V215.749H317.489V235.749H337.489ZM337.489 324.369H317.489V344.369H337.489V324.369ZM451.429 324.369L471.161 321.103L468.391 304.369H451.429V324.369ZM466.621 416.154V436.154H490.203L486.353 412.888L466.621 416.154ZM337.489 416.154V396.154H317.489V416.154H337.489ZM337.489 582V602H357.489V582H337.489ZM229.879 582H209.879V602H229.879V582ZM229.879 145.23V125.23H209.879V145.23H229.879ZM491.308 145.23H511.308V125.23H491.308V145.23ZM491.308 215.749H337.489V255.749H491.308V215.749ZM317.489 235.749V324.369H357.489V235.749H317.489ZM337.489 344.369H451.429V304.369H337.489V344.369ZM431.697 327.635L446.889 419.42L486.353 412.888L471.161 321.103L431.697 327.635ZM466.621 396.154H337.489V436.154H466.621V396.154ZM317.489 416.154V582H357.489V416.154H317.489ZM337.489 562H229.879V602H337.489V562ZM249.879 582V145.23H209.879V582H249.879ZM229.879 165.23H491.308V125.23H229.879V165.23ZM471.308 145.23V235.749H511.308V145.23H471.308Z" fill="white" mask="url(#path-5-outside-2_16_108)"/>
</g>
</g>
<defs>
<filter id="filter0_d_16_108" x="80.2199" y="33.1299" width="570.694" height="671.088" filterUnits="userSpaceOnUse" color-interpolation-filters="sRGB">
<feFlood flood-opacity="0" result="BackgroundImageFix"/>
<feColorMatrix in="SourceAlpha" type="matrix" values="0 0 0 0 0 0 0 0 0 0 0 0 0 0 0 0 0 0 127 0" result="hardAlpha"/>
<feOffset dx="15" dy="29"/>
<feGaussianBlur stdDeviation="8.05"/>
<feComposite in2="hardAlpha" operator="out"/>
<feColorMatrix type="matrix" values="0 0 0 0 0 0 0 0 0 0 0 0 0 0 0 0 0 0 0.23 0"/>
<feBlend mode="normal" in2="BackgroundImageFix" result="effect1_dropShadow_16_108"/>
<feBlend mode="normal" in="SourceGraphic" in2="effect1_dropShadow_16_108" result="shape"/>
</filter>
<filter id="filter1_d_16_108" x="220.579" y="143.93" width="284.029" height="459.37" filterUnits="userSpaceOnUse" color-interpolation-filters="sRGB">
<feFlood flood-opacity="0" result="BackgroundImageFix"/>
<feColorMatrix in="SourceAlpha" type="matrix" values="0 0 0 0 0 0 0 0 0 0 0 0 0 0 0 0 0 0 127 0" result="hardAlpha"/>
<feOffset dx="2" dy="10"/>
<feGaussianBlur stdDeviation="5.65"/>
<feComposite in2="hardAlpha" operator="out"/>
<feColorMatrix type="matrix" values="0 0 0 0 0 0 0 0 0 0 0 0 0 0 0 0 0 0 0.58 0"/>
<feBlend mode="normal" in2="BackgroundImageFix" result="effect1_dropShadow_16_108"/>
<feBlend mode="normal" in="SourceGraphic" in2="effect1_dropShadow_16_108" result="shape"/>
</filter>
<linearGradient id="paint0_linear_16_108" x1="350" y1="0" x2="350" y2="700" gradientUnits="userSpaceOnUse">
<stop stop-color="#BE1121"/>
<stop offset="1" stop-color="#2A1A33"/>
</linearGradient>
<linearGradient id="paint1_linear_16_108" x1="350.5" y1="-210" x2="350.5" y2="831" gradientUnits="userSpaceOnUse">
<stop stop-opacity="0.71"/>
<stop offset="0.515" stop-color="#2B0035" stop-opacity="0.76"/>
<stop offset="1" stop-color="#FF0000" stop-opacity="0.87"/>
</linearGradient>
<linearGradient id="paint2_linear_16_108" x1="349.5" y1="-22" x2="349.5" y2="708" gradientUnits="userSpaceOnUse">
<stop stop-color="#B3B3B3"/>
<stop offset="1" stop-color="#222222"/>
</linearGradient>
<clipPath id="clip0_16_108">
<rect width="700" height="700" fill="white"/>
</clipPath>
</defs>
</svg>
